<?xml version="1.0" encoding="utf-8"?>
<!-- Generator: Adobe Illustrator 24.0.1, SVG Export Plug-In . SVG Version: 6.00 Build 0)  -->
<svg version="1.1" xmlns="http://www.w3.org/2000/svg" xmlns:xlink="http://www.w3.org/1999/xlink"
	 x="0px" y="0px" viewBox="0 0 250 250" style="enable-background:new 0 0 250 250;" xml:space="preserve">
<style type="text/css">
	.st1{fill:#111111;}
</style>
<g id="Circle_Border">
	<path class="st1" d="M125,7c31.52,0,61.15,12.27,83.44,34.56S243,93.48,243,125s-12.27,61.15-34.56,83.44S156.52,243,125,243
		s-61.15-12.27-83.44-34.56S7,156.52,7,125s12.27-61.15,34.56-83.44S93.48,7,125,7 M125,0C55.96,0,0,55.96,0,125s55.96,125,125,125
		s125-55.96,125-125S194.04,0,125,0L125,0z"/>
</g>
<path id="Facebook" class="st1" d="M136.05,101.13V89.07c0-1.81,0.08-3.21,0.25-4.2c0.17-0.99,0.55-1.97,1.15-2.93
	c0.59-0.96,1.56-1.63,2.89-2c1.33-0.37,3.1-0.55,5.31-0.55h12.06V55.26h-19.28c-11.16,0-19.17,2.65-24.04,7.94
	c-4.87,5.3-7.31,13.1-7.31,23.4v14.53H92.63v24.13h14.44v70h28.97v-70h19.28l2.55-24.13H136.05z"/>
</svg>
