<?xml version="1.0" encoding="utf-8"?>
<!-- Generator: Adobe Illustrator 24.0.1, SVG Export Plug-In . SVG Version: 6.00 Build 0)  -->
<svg version="1.1" xmlns="http://www.w3.org/2000/svg" xmlns:xlink="http://www.w3.org/1999/xlink" x="0px" y="0px"
	 viewBox="0 0 250 250" style="enable-background:new 0 0 250 250;" xml:space="preserve">
<style type="text/css">
	.st0{display:none;}
	.st1{display:inline;}
	.st2{fill:#111111;}
	.st3{display:inline;fill:#111111;}
	.st4{fill:#FFFFFF;}
	.st5{display:none;fill:#FFFFFF;}
</style>
<g id="Social_Media_Icons_Black" class="st0">
	<g id="Circle_Border" class="st1">
		<path class="st2" d="M125,7c31.52,0,61.15,12.27,83.44,34.56S243,93.48,243,125s-12.27,61.15-34.56,83.44S156.52,243,125,243
			s-61.15-12.27-83.44-34.56S7,156.52,7,125s12.27-61.15,34.56-83.44S93.48,7,125,7 M125,0C55.96,0,0,55.96,0,125s55.96,125,125,125
			s125-55.96,125-125S194.04,0,125,0L125,0z"/>
	</g>
	<path id="LinkedIn_1_" class="st2" d="M195,140.12v51.77h-30.01v-48.3c0-12.13-4.33-20.41-15.2-20.41
		c-8.29,0-13.22,5.58-15.39,10.97c-0.79,1.93-0.99,4.61-0.99,7.31v50.42h-30.02c0,0,0.4-81.8,0-90.27h30.02v12.79
		c-0.06,0.1-0.15,0.2-0.2,0.3h0.2v-0.3c3.99-6.14,11.1-14.91,27.05-14.91C180.2,99.5,195,112.4,195,140.12L195,140.12z M71.98,58.11
		C61.72,58.11,55,64.85,55,73.7c0,8.67,6.52,15.6,16.59,15.6h0.19c10.47,0,16.98-6.93,16.98-15.6
		C88.56,64.85,82.25,58.11,71.98,58.11L71.98,58.11z M56.78,191.89h30v-90.27h-30V191.89z"/>
	<path id="Facebook" class="st2" d="M136.05,101.13V89.07c0-1.81,0.08-3.21,0.25-4.2c0.17-0.99,0.55-1.97,1.15-2.93
		c0.59-0.96,1.56-1.63,2.89-2c1.33-0.37,3.1-0.55,5.31-0.55h12.06V55.26h-19.28c-11.16,0-19.17,2.65-24.04,7.94
		c-4.87,5.3-7.31,13.1-7.31,23.4v14.53H92.63v24.13h14.44v70h28.97v-70h19.28l2.55-24.13H136.05z"/>
	<path id="Vimeo" class="st3" d="M200.92,94.75c-0.73,15.73-11.74,37.27-33.04,64.62c-22.03,28.56-40.66,42.84-55.91,42.84
		c-9.44,0-17.43-8.71-23.96-26.14l-13.07-47.92c-4.84-17.43-10.04-26.14-15.61-26.14c-1.21,0-5.45,2.54-12.71,7.62L39,99.83
		c7.92-6.96,15.79-13.98,23.6-21.06c10.65-9.2,18.64-14.04,23.96-14.52c12.59-1.21,20.33,7.38,23.24,25.78
		c3.15,19.85,5.32,32.19,6.53,37.03c3.63,16.46,7.62,24.69,11.98,24.69c3.39,0,8.47-5.32,15.25-15.97
		c6.78-10.65,10.41-18.76,10.89-24.32c0.97-9.2-2.66-13.8-10.89-13.8c-3.87,0-7.87,0.85-11.98,2.54
		c7.99-25.9,23.24-38.48,45.74-37.76C194.02,62.92,201.89,73.69,200.92,94.75L200.92,94.75z"/>
</g>
<g id="Social_Media_Icons_White">
	<g id="Circle_Border_1_">
		<path class="st4" d="M125,7c31.52,0,61.15,12.27,83.44,34.56S243,93.48,243,125s-12.27,61.15-34.56,83.44S156.52,243,125,243
			s-61.15-12.27-83.44-34.56S7,156.52,7,125s12.27-61.15,34.56-83.44S93.48,7,125,7 M125,0C55.96,0,0,55.96,0,125s55.96,125,125,125
			s125-55.96,125-125S194.04,0,125,0L125,0z"/>
	</g>
	<path id="LinkedIn" class="st5" d="M195,140.12v51.77h-30.01v-48.3c0-12.13-4.33-20.41-15.2-20.41c-8.29,0-13.22,5.58-15.39,10.97
		c-0.79,1.93-0.99,4.61-0.99,7.31v50.42h-30.02c0,0,0.4-81.8,0-90.27h30.02v12.79c-0.06,0.1-0.15,0.2-0.2,0.3h0.2v-0.3
		c3.99-6.14,11.1-14.91,27.05-14.91C180.2,99.5,195,112.4,195,140.12L195,140.12z M71.98,58.11C61.72,58.11,55,64.85,55,73.7
		c0,8.67,6.52,15.6,16.59,15.6h0.19c10.47,0,16.98-6.93,16.98-15.6C88.56,64.85,82.25,58.11,71.98,58.11L71.98,58.11z M56.78,191.89
		h30v-90.27h-30V191.89z"/>
	<path id="Facebook_1_" class="st4" d="M136.05,101.13V89.07c0-1.81,0.08-3.21,0.25-4.2c0.17-0.99,0.55-1.97,1.15-2.93
		c0.59-0.96,1.56-1.63,2.89-2c1.33-0.37,3.1-0.55,5.31-0.55h12.06V55.26h-19.28c-11.16,0-19.17,2.65-24.04,7.94
		c-4.87,5.3-7.31,13.1-7.31,23.4v14.53H92.63v24.13h14.44v70h28.97v-70h19.28l2.55-24.13H136.05z"/>
	<path id="Vimeo_1_" class="st5" d="M200.92,94.75c-0.73,15.73-11.74,37.27-33.04,64.62c-22.03,28.56-40.66,42.84-55.91,42.84
		c-9.44,0-17.43-8.71-23.96-26.14l-13.07-47.92c-4.84-17.43-10.04-26.14-15.61-26.14c-1.21,0-5.45,2.54-12.71,7.62L39,99.83
		c7.92-6.96,15.79-13.98,23.6-21.06c10.65-9.2,18.64-14.04,23.96-14.52c12.59-1.21,20.33,7.38,23.24,25.78
		c3.15,19.85,5.32,32.19,6.53,37.03c3.63,16.46,7.62,24.69,11.98,24.69c3.39,0,8.47-5.32,15.25-15.97
		c6.78-10.65,10.41-18.76,10.89-24.32c0.97-9.2-2.66-13.8-10.89-13.8c-3.87,0-7.87,0.85-11.98,2.54
		c7.99-25.9,23.24-38.48,45.74-37.76C194.02,62.92,201.89,73.69,200.92,94.75L200.92,94.75z"/>
</g>
</svg>
