<?xml version="1.0" encoding="utf-8"?>
<!-- Generator: Adobe Illustrator 24.0.1, SVG Export Plug-In . SVG Version: 6.00 Build 0)  -->
<svg version="1.1" xmlns="http://www.w3.org/2000/svg" xmlns:xlink="http://www.w3.org/1999/xlink"
	 x="0px" y="0px" viewBox="0 0 250 250" style="enable-background:new 0 0 250 250;" xml:space="preserve">
<style type="text/css">
	.st1{fill:#111111;}
</style>
<g id="Circle_Border">
	<path class="st1" d="M125,7c31.52,0,61.15,12.27,83.44,34.56S243,93.48,243,125s-12.27,61.15-34.56,83.44S156.52,243,125,243
		s-61.15-12.27-83.44-34.56S7,156.52,7,125s12.27-61.15,34.56-83.44S93.48,7,125,7 M125,0C55.96,0,0,55.96,0,125s55.96,125,125,125
		s125-55.96,125-125S194.04,0,125,0L125,0z"/>
</g>
<path id="LinkedIn_1_" class="st1" d="M195,140.12v51.77h-30.01v-48.3c0-12.13-4.33-20.41-15.2-20.41
	c-8.29,0-13.22,5.58-15.39,10.97c-0.79,1.93-0.99,4.61-0.99,7.31v50.42h-30.02c0,0,0.4-81.8,0-90.27h30.02v12.79
	c-0.06,0.1-0.15,0.2-0.2,0.3h0.2v-0.3c3.99-6.14,11.1-14.91,27.05-14.91C180.2,99.5,195,112.4,195,140.12L195,140.12z M71.98,58.11
	C61.72,58.11,55,64.85,55,73.7c0,8.67,6.52,15.6,16.59,15.6h0.19c10.47,0,16.98-6.93,16.98-15.6
	C88.56,64.85,82.25,58.11,71.98,58.11L71.98,58.11z M56.78,191.89h30v-90.27h-30V191.89z"/>
</svg>
