<?xml version="1.0" encoding="utf-8"?>
<!-- Generator: Adobe Illustrator 24.0.1, SVG Export Plug-In . SVG Version: 6.00 Build 0)  -->
<svg version="1.1" id="logo" xmlns="http://www.w3.org/2000/svg" xmlns:xlink="http://www.w3.org/1999/xlink" x="0px" y="0px"
	 viewBox="0 0 250 250" style="enable-background:new 0 0 250 250;" xml:space="preserve">
<style type="text/css">
	.st0{fill:#AA1919;}
</style>
<g id="icon">
	<g id="icon_bottom_1_">
		<path class="st0" d="M94.6,94.9c-0.8,1.33-1.2,3.33-1.2,6c0,2.67,0.53,4.67,1.6,6c1.07,1.33,2.93,2,5.6,2h65
			c13.6,0,23.4,2.73,29.4,8.2c6,5.47,9,13.2,9,23.2v20c0,5.47-0.7,10.17-2.1,14.1c-1.4,3.93-3.73,7.2-7,9.8
			c-3.27,2.6-7.53,4.53-12.8,5.8c-5.27,1.27-11.77,1.9-19.5,1.9H0V250h205.08c24.81,0,44.92-20.11,44.92-44.92V102.9
			c0-5.52-4.48-10-10-10H99.8C97.13,92.9,95.4,93.57,94.6,94.9z"/>
	</g>
	<g id="icon_top_1_">
		<path class="st0" d="M44.92,0C20.11,0,0,20.11,0,44.92V148.3c0,5.52,4.48,10,10,10h140.4c2.67,0,4.43-0.67,5.3-2
			c0.87-1.33,1.3-3.53,1.3-6.6c0-2.67-0.5-4.57-1.5-5.7c-1-1.13-2.7-1.7-5.1-1.7h-66c-12.67,0-22.2-2.43-28.6-7.3
			c-6.4-4.87-9.6-11.63-9.6-20.3V90.9c0-5.6,0.63-10.4,1.9-14.4c1.27-4,3.5-7.23,6.7-9.7c3.2-2.47,7.63-4.27,13.3-5.4
			c5.67-1.13,12.9-1.7,21.7-1.7H250V0H44.92z"/>
	</g>
</g>
</svg>
