<?xml version="1.0" encoding="utf-8"?>
<!-- Generator: Adobe Illustrator 24.0.1, SVG Export Plug-In . SVG Version: 6.00 Build 0)  -->
<svg version="1.1" id="logo" xmlns="http://www.w3.org/2000/svg" xmlns:xlink="http://www.w3.org/1999/xlink" x="0px" y="0px"
	 viewBox="0 0 1087.45 576.15" style="enable-background:new 0 0 1087.45 576.15;" xml:space="preserve">
<style type="text/css">
	.st0{fill:#111111;}
	.st1{display:none;fill:#111111;}
	.st2{font-family:'LibreFranklin-Regular';}
	.st3{font-size:110px;}
	.st4{letter-spacing:16;}
	.st5{fill:#AA1919;}
</style>
<g id="name_expanded">
	<path class="st0" d="M30.8,519.31c-5.5,0-9.83,0.91-12.98,2.72c-3.15,1.81-4.73,4.35-4.73,7.59c0,4.29,3.92,7.42,11.77,9.41
		l15.95,3.96c6.45,1.6,11.13,3.73,14.03,6.39c2.9,2.67,4.34,5.93,4.34,9.78c0,5.28-2.6,9.43-7.81,12.46
		c-5.21,3.03-12.32,4.54-21.34,4.54c-6.6,0-12.41-0.88-17.44-2.64c-5.02-1.76-9.08-4.32-12.15-7.67C0.15,565.4,0,565.13,0,565.02
		c0-0.38,0.37-0.77,1.1-1.16l3.96-2.06c0.66-0.33,1.17-0.5,1.54-0.5c0.44,0,0.84,0.17,1.21,0.5c3.15,3.03,6.27,5.17,9.35,6.44
		c3.08,1.27,7.22,1.9,12.43,1.9c6.16,0,10.94-0.83,14.35-2.48c3.41-1.65,5.11-4.21,5.11-7.67c0-2.15-0.9-3.97-2.69-5.49
		c-1.8-1.51-5.04-2.93-9.73-4.25l-16.72-4.29c-5.79-1.49-10.06-3.62-12.81-6.39c-2.75-2.78-4.13-5.84-4.13-9.2
		c0-3.41,1.15-6.41,3.46-8.99c2.31-2.58,5.57-4.58,9.79-5.98c4.22-1.4,9.08-2.1,14.58-2.1c5.35,0,10.21,0.72,14.57,2.15
		c4.36,1.43,8.09,3.44,11.17,6.02c0.37,0.28,0.55,0.55,0.55,0.82c0,0.28-0.18,0.52-0.55,0.74l-5.06,2.97
		c-0.22,0.17-0.44,0.25-0.66,0.25c-0.22,0-0.66-0.25-1.32-0.74C44.81,521.37,38.57,519.31,30.8,519.31z"/>
	<path class="st0" d="M137.11,515.6c4.36,1.54,7.98,3.6,10.84,6.19c2.86,2.59,4.58,5.39,5.17,8.42l0.11,0.58
		c0,0.22-0.09,0.38-0.27,0.5c-0.18,0.11-0.39,0.17-0.6,0.17l-8.25,0.5h-0.22c-0.22,0-0.4-0.07-0.55-0.21
		c-0.15-0.14-0.26-0.34-0.33-0.62c-1.1-3.58-3.37-6.44-6.82-8.58c-3.45-2.15-7.63-3.22-12.54-3.22c-7.7,0-13.58,2.13-17.66,6.39
		c-4.07,4.26-6.1,10.63-6.1,19.1c0,8.31,2.04,14.56,6.1,18.77c4.07,4.21,10.14,6.31,18.21,6.31c5.21,0,9.55-0.95,13.04-2.85
		c3.48-1.9,6.29-4.88,8.42-8.95c0.15-0.38,0.59-0.5,1.32-0.33l6.49,1.15c0.51,0.11,0.7,0.5,0.55,1.16c-1.1,2.75-3.01,5.35-5.72,7.8
		c-2.71,2.45-6.16,4.44-10.34,5.98s-8.91,2.31-14.19,2.31c-7.26,0-13.49-1.26-18.7-3.79c-5.21-2.53-9.2-6.16-11.99-10.89
		c-2.79-4.73-4.18-10.34-4.18-16.83c0-6.49,1.38-12.09,4.13-16.79c2.75-4.7,6.71-8.3,11.88-10.81c5.17-2.5,11.31-3.75,18.43-3.75
		C128.15,513.29,132.75,514.06,137.11,515.6z"/>
	<path class="st0" d="M199.37,572.52c-5.24-2.42-9.26-5.97-12.04-10.64c-2.79-4.67-4.18-10.31-4.18-16.91
		c0-6.65,1.41-12.36,4.23-17.12c2.82-4.76,6.86-8.37,12.1-10.85c5.24-2.48,11.46-3.71,18.65-3.71c7.11,0,13.29,1.24,18.54,3.71
		c5.24,2.47,9.26,6.08,12.04,10.81c2.79,4.73,4.18,10.42,4.18,17.08c0,6.6-1.39,12.24-4.18,16.91c-2.79,4.68-6.8,8.24-12.04,10.68
		c-5.24,2.45-11.46,3.67-18.65,3.67C210.83,576.15,204.61,574.94,199.37,572.52z M236,563.94c3.92-4.13,5.89-10.45,5.89-18.98
		c0-8.69-2-15.14-6-19.35c-4-4.21-9.92-6.31-17.77-6.31c-7.99,0-13.99,2.12-17.98,6.35c-4,4.24-6,10.67-6,19.3
		c0,8.53,2,14.85,6,18.98c4,4.13,10.03,6.19,18.1,6.19C226.16,570.13,232.08,568.07,236,563.94z"/>
	<path class="st0" d="M275.11,515.02c0-0.6,0.44-0.91,1.32-0.91h59.18c0.88,0,1.32,0.3,1.32,0.91v4.29c0,0.33-0.11,0.55-0.33,0.66
		c-0.22,0.11-0.55,0.17-0.99,0.17h-22.33c-0.44,0-0.75,0.06-0.94,0.17c-0.18,0.11-0.27,0.33-0.27,0.66v53.29
		c0,0.71-0.44,1.07-1.32,1.07h-7.92c-0.88,0-1.32-0.36-1.32-1.07v-53.21c0-0.38-0.07-0.63-0.22-0.74c-0.15-0.11-0.44-0.17-0.88-0.17
		h-23.98c-0.44,0-0.77-0.05-0.99-0.17c-0.22-0.11-0.33-0.33-0.33-0.66V515.02z"/>
	<path class="st0" d="M362.56,515.02c0-0.6,0.44-0.91,1.32-0.91h59.18c0.88,0,1.32,0.3,1.32,0.91v4.29c0,0.33-0.11,0.55-0.33,0.66
		c-0.22,0.11-0.55,0.17-0.99,0.17h-22.33c-0.44,0-0.75,0.06-0.94,0.17c-0.18,0.11-0.27,0.33-0.27,0.66v53.29
		c0,0.71-0.44,1.07-1.32,1.07h-7.92c-0.88,0-1.32-0.36-1.32-1.07v-53.21c0-0.38-0.07-0.63-0.22-0.74c-0.15-0.11-0.44-0.17-0.88-0.17
		h-23.98c-0.44,0-0.77-0.05-0.99-0.17c-0.22-0.11-0.33-0.33-0.33-0.66V515.02z"/>
	<path class="st0" d="M508.91,572.52c-5.24-2.42-9.26-5.97-12.04-10.64c-2.79-4.67-4.18-10.31-4.18-16.91
		c0-6.65,1.41-12.36,4.23-17.12c2.82-4.76,6.86-8.37,12.1-10.85c5.24-2.48,11.46-3.71,18.65-3.71c7.11,0,13.29,1.24,18.54,3.71
		c5.24,2.47,9.26,6.08,12.05,10.81c2.79,4.73,4.18,10.42,4.18,17.08c0,6.6-1.39,12.24-4.18,16.91c-2.79,4.68-6.8,8.24-12.05,10.68
		c-5.24,2.45-11.46,3.67-18.65,3.67C520.37,576.15,514.15,574.94,508.91,572.52z M545.54,563.94c3.92-4.13,5.89-10.45,5.89-18.98
		c0-8.69-2-15.14-6-19.35c-4-4.21-9.92-6.31-17.77-6.31c-7.99,0-13.99,2.12-17.98,6.35c-4,4.24-6,10.67-6,19.3
		c0,8.53,2,14.85,6,18.98c4,4.13,10.03,6.19,18.1,6.19C535.69,570.13,541.62,568.07,545.54,563.94z"/>
	<path class="st0" d="M598.06,514.11h7.92c0.88,0,1.32,0.36,1.32,1.07v53.21c0,0.33,0.07,0.55,0.22,0.66
		c0.15,0.11,0.44,0.16,0.88,0.16h38.06c0.44,0,0.77,0.06,0.99,0.17c0.22,0.11,0.33,0.33,0.33,0.66v4.37c0,0.61-0.44,0.91-1.32,0.91
		h-48.18c-0.59,0-0.99-0.08-1.21-0.25c-0.22-0.17-0.33-0.47-0.33-0.91v-58.9C596.74,514.5,597.18,514.11,598.06,514.11z"/>
	<path class="st0" d="M662.63,515.02c0-0.6,0.44-0.91,1.32-0.91h59.18c0.88,0,1.32,0.3,1.32,0.91v4.29c0,0.33-0.11,0.55-0.33,0.66
		c-0.22,0.11-0.55,0.17-0.99,0.17H700.8c-0.44,0-0.75,0.06-0.93,0.17c-0.19,0.11-0.28,0.33-0.28,0.66v53.29
		c0,0.71-0.44,1.07-1.32,1.07h-7.92c-0.88,0-1.32-0.36-1.32-1.07v-53.21c0-0.38-0.07-0.63-0.22-0.74c-0.15-0.11-0.44-0.17-0.88-0.17
		h-23.98c-0.44,0-0.77-0.05-0.99-0.17c-0.22-0.11-0.33-0.33-0.33-0.66V515.02z"/>
	<path class="st0" d="M767.57,546.7c-0.29,0-0.51,0.07-0.66,0.21c-0.15,0.14-0.22,0.29-0.22,0.45v26.73c0,0.44-0.15,0.76-0.44,0.95
		c-0.29,0.19-0.77,0.29-1.43,0.29h-7.15c-0.59,0-0.99-0.08-1.21-0.25s-0.33-0.47-0.33-0.91v-58.9c0-0.77,0.44-1.16,1.32-1.16h7.92
		c0.88,0,1.32,0.36,1.32,1.07v24.25c0,0.39,0.09,0.65,0.27,0.78c0.18,0.14,0.5,0.21,0.94,0.21h36.08c0.73,0,1.1-0.33,1.1-0.99V515.1
		c0-0.66,0.4-0.99,1.21-0.99h8.03c0.51,0,0.86,0.08,1.04,0.25c0.18,0.17,0.27,0.47,0.27,0.91v58.9c0,0.77-0.51,1.16-1.54,1.16h-7.15
		c-0.66,0-1.14-0.1-1.43-0.29c-0.29-0.19-0.44-0.51-0.44-0.95v-26.65c0-0.5-0.33-0.74-0.99-0.74H767.57z"/>
	<path class="st0" d="M866.19,572.52c-5.24-2.42-9.26-5.97-12.04-10.64c-2.79-4.67-4.18-10.31-4.18-16.91
		c0-6.65,1.41-12.36,4.23-17.12c2.82-4.76,6.86-8.37,12.1-10.85c5.24-2.48,11.46-3.71,18.64-3.71c7.11,0,13.29,1.24,18.54,3.71
		c5.24,2.47,9.26,6.08,12.04,10.81c2.79,4.73,4.18,10.42,4.18,17.08c0,6.6-1.39,12.24-4.18,16.91c-2.79,4.68-6.8,8.24-12.04,10.68
		c-5.24,2.45-11.46,3.67-18.65,3.67C877.64,576.15,871.43,574.94,866.19,572.52z M902.82,563.94c3.92-4.13,5.88-10.45,5.88-18.98
		c0-8.69-2-15.14-6-19.35c-4-4.21-9.92-6.31-17.76-6.31c-7.99,0-13.99,2.12-17.99,6.35c-4,4.24-5.99,10.67-5.99,19.3
		c0,8.53,2,14.85,5.99,18.98c4,4.13,10.03,6.19,18.1,6.19C892.97,570.13,898.89,568.07,902.82,563.94z"/>
	<path class="st0" d="M955.34,514.11h48.4c0.73,0,1.1,0.3,1.1,0.91v4.21c0,0.66-0.48,0.99-1.43,0.99h-37.4
		c-0.59,0-0.97,0.07-1.16,0.21c-0.18,0.14-0.27,0.4-0.27,0.78v20.29c0,0.61,0.4,0.91,1.21,0.91h29.37c0.81,0,1.21,0.28,1.21,0.83
		v4.37c0,0.28-0.09,0.47-0.27,0.58c-0.18,0.11-0.5,0.17-0.94,0.17h-29.37c-0.81,0-1.21,0.3-1.21,0.91v25c0,0.71-0.51,1.07-1.54,1.07
		h-7.48c-0.59,0-0.99-0.08-1.21-0.25s-0.33-0.47-0.33-0.91v-58.9C954.02,514.5,954.46,514.11,955.34,514.11z"/>
	<path class="st0" d="M1037.95,514.11h48.4c0.73,0,1.1,0.3,1.1,0.91v4.21c0,0.66-0.48,0.99-1.43,0.99h-37.4
		c-0.59,0-0.97,0.07-1.16,0.21c-0.18,0.14-0.27,0.4-0.27,0.78v20.29c0,0.61,0.4,0.91,1.21,0.91h29.37c0.81,0,1.21,0.28,1.21,0.83
		v4.37c0,0.28-0.09,0.47-0.27,0.58c-0.18,0.11-0.5,0.17-0.94,0.17h-29.37c-0.81,0-1.21,0.3-1.21,0.91v25c0,0.71-0.51,1.07-1.54,1.07
		h-7.48c-0.59,0-0.99-0.08-1.21-0.25s-0.33-0.47-0.33-0.91v-58.9C1036.63,514.5,1037.07,514.11,1037.95,514.11z"/>
</g>
<text id="name_1_" transform="matrix(1 0 0 0.75 -5.2 575.3279)" class="st1 st2 st3 st4">Scott Olthoff</text>
<g id="icon">
	<g id="icon_bottom_1_">
		<path class="st5" d="M489.01,170.82c-1.44,2.4-2.16,6-2.16,10.8c0,4.8,0.96,8.4,2.88,10.8c1.92,2.4,5.28,3.6,10.08,3.6h117
			c24.48,0,42.12,4.92,52.92,14.76c10.8,9.84,16.2,23.76,16.2,41.76v36c0,9.84-1.26,18.3-3.78,25.38
			c-2.52,7.08-6.72,12.96-12.6,17.64c-5.88,4.68-13.56,8.16-23.04,10.44c-9.48,2.28-21.18,3.42-35.1,3.42H318.73V450h369.14
			c44.66,0,80.86-36.2,80.86-80.86V185.22c0-9.94-8.06-18-18-18H498.37C493.56,167.22,490.45,168.42,489.01,170.82z"/>
	</g>
	<g id="icon_top_1_">
		<path class="st5" d="M399.58,0c-44.66,0-80.86,36.2-80.86,80.86v186.08c0,9.94,8.06,18,18,18h252.72c4.8,0,7.98-1.2,9.54-3.6
			c1.56-2.4,2.34-6.36,2.34-11.88c0-4.8-0.9-8.22-2.7-10.26c-1.8-2.04-4.86-3.06-9.18-3.06h-118.8c-22.8,0-39.96-4.38-51.48-13.14
			c-11.52-8.76-17.28-20.94-17.28-36.54v-42.84c0-10.08,1.14-18.72,3.42-25.92c2.28-7.2,6.3-13.02,12.06-17.46
			c5.76-4.44,13.74-7.68,23.94-9.72c10.2-2.04,23.22-3.06,39.06-3.06h288.36V0H399.58z"/>
	</g>
</g>
</svg>
