<?xml version="1.0" encoding="utf-8"?>
<!-- Generator: Adobe Illustrator 24.0.1, SVG Export Plug-In . SVG Version: 6.00 Build 0)  -->
<svg version="1.1" id="logo_v2" xmlns="http://www.w3.org/2000/svg" xmlns:xlink="http://www.w3.org/1999/xlink" x="0px" y="0px"
	 viewBox="0 0 929.78 90" style="enable-background:new 0 0 929.78 90;" xml:space="preserve">
<style type="text/css">
	.st0{display:none;fill:#111111;enable-background:new    ;}
	.st1{font-family:'LibreFranklin-Regular';}
	.st2{font-size:60px;}
	.st3{letter-spacing:9;}
	.st4{fill:#111111;}
	.st5{fill:#AA1919;}
</style>
<text id="name_1_" transform="matrix(1.3333 0 0 1 135.41 67.26)" class="st0 st1 st2 st3">SCOTT OLTHOFF</text>
<g id="name_expanded">
	<path class="st4" d="M161.31,26.52c-4,0-7.15,0.66-9.44,1.98c-2.29,1.32-3.44,3.16-3.44,5.52c0,3.12,2.85,5.4,8.56,6.84l11.6,2.88
		c4.69,1.16,8.09,2.71,10.2,4.65s3.16,4.31,3.16,7.11c0,3.84-1.89,6.86-5.68,9.06s-8.96,3.3-15.52,3.3c-4.8,0-9.03-0.64-12.68-1.92
		c-3.65-1.28-6.6-3.14-8.84-5.58c-0.21-0.32-0.32-0.52-0.32-0.6c0-0.28,0.27-0.56,0.8-0.84l2.88-1.5c0.48-0.24,0.85-0.36,1.12-0.36
		c0.32,0,0.61,0.12,0.88,0.36c2.29,2.2,4.56,3.76,6.8,4.68c2.24,0.92,5.25,1.38,9.04,1.38c4.48,0,7.96-0.6,10.44-1.8
		c2.48-1.2,3.72-3.06,3.72-5.58c0-1.56-0.65-2.89-1.96-3.99c-1.31-1.1-3.67-2.13-7.08-3.09l-12.16-3.12
		c-4.21-1.08-7.32-2.63-9.32-4.65c-2-2.02-3-4.25-3-6.69c0-2.48,0.84-4.66,2.52-6.54c1.68-1.88,4.05-3.33,7.12-4.35
		c3.07-1.02,6.6-1.53,10.6-1.53c3.89,0,7.43,0.52,10.6,1.56c3.17,1.04,5.88,2.5,8.12,4.38c0.27,0.2,0.4,0.4,0.4,0.6
		s-0.13,0.38-0.4,0.54l-3.68,2.16c-0.16,0.12-0.32,0.18-0.48,0.18s-0.48-0.18-0.96-0.54C171.5,28.02,166.96,26.52,161.31,26.52z"/>
	<path class="st4" d="M238.63,23.82c3.17,1.12,5.8,2.62,7.88,4.5c2.08,1.88,3.33,3.92,3.76,6.12l0.08,0.42
		c0,0.16-0.07,0.28-0.2,0.36s-0.28,0.12-0.44,0.12l-6,0.36h-0.16c-0.16,0-0.29-0.05-0.4-0.15s-0.19-0.25-0.24-0.45
		c-0.8-2.6-2.45-4.68-4.96-6.24c-2.51-1.56-5.55-2.34-9.12-2.34c-5.6,0-9.88,1.55-12.84,4.65s-4.44,7.73-4.44,13.89
		c0,6.04,1.48,10.59,4.44,13.65s7.37,4.59,13.24,4.59c3.79,0,6.95-0.69,9.48-2.07s4.57-3.55,6.12-6.51
		c0.11-0.28,0.43-0.36,0.96-0.24l4.72,0.84c0.37,0.08,0.51,0.36,0.4,0.84c-0.8,2-2.19,3.89-4.16,5.67s-4.48,3.23-7.52,4.35
		s-6.48,1.68-10.32,1.68c-5.28,0-9.81-0.92-13.6-2.76s-6.69-4.48-8.72-7.92s-3.04-7.52-3.04-12.24s1-8.79,3-12.21
		s4.88-6.04,8.64-7.86s8.23-2.73,13.4-2.73C232.11,22.14,235.46,22.7,238.63,23.82z"/>
	<path class="st4" d="M283.91,65.22c-3.81-1.76-6.73-4.34-8.76-7.74s-3.04-7.5-3.04-12.3c0-4.84,1.03-8.99,3.08-12.45
		c2.05-3.46,4.99-6.09,8.8-7.89c3.81-1.8,8.33-2.7,13.56-2.7c5.17,0,9.67,0.9,13.48,2.7c3.81,1.8,6.73,4.42,8.76,7.86
		c2.03,3.44,3.04,7.58,3.04,12.42c0,4.8-1.01,8.9-3.04,12.3s-4.95,5.99-8.76,7.77s-8.33,2.67-13.56,2.67
		C292.24,67.86,287.72,66.98,283.91,65.22z M310.55,58.98c2.85-3,4.28-7.6,4.28-13.8c0-6.32-1.45-11.01-4.36-14.07
		c-2.91-3.06-7.21-4.59-12.92-4.59c-5.81,0-10.17,1.54-13.08,4.62c-2.91,3.08-4.36,7.76-4.36,14.04c0,6.2,1.45,10.8,4.36,13.8
		c2.91,3,7.29,4.5,13.16,4.5C303.39,63.48,307.69,61.98,310.55,58.98z"/>
	<path class="st4" d="M338.99,23.4c0-0.44,0.32-0.66,0.96-0.66h43.04c0.64,0,0.96,0.22,0.96,0.66v3.12c0,0.24-0.08,0.4-0.24,0.48
		s-0.4,0.12-0.72,0.12h-16.24c-0.32,0-0.55,0.04-0.68,0.12s-0.2,0.24-0.2,0.48v38.76c0,0.52-0.32,0.78-0.96,0.78h-5.76
		c-0.64,0-0.96-0.26-0.96-0.78v-38.7c0-0.28-0.05-0.46-0.16-0.54c-0.11-0.08-0.32-0.12-0.64-0.12h-17.44
		c-0.32,0-0.56-0.04-0.72-0.12s-0.24-0.24-0.24-0.48V23.4z"/>
	<path class="st4" d="M402.59,23.4c0-0.44,0.32-0.66,0.96-0.66h43.04c0.64,0,0.96,0.22,0.96,0.66v3.12c0,0.24-0.08,0.4-0.24,0.48
		s-0.4,0.12-0.72,0.12h-16.24c-0.32,0-0.55,0.04-0.68,0.12s-0.2,0.24-0.2,0.48v38.76c0,0.52-0.32,0.78-0.96,0.78h-5.76
		c-0.64,0-0.96-0.26-0.96-0.78v-38.7c0-0.28-0.05-0.46-0.16-0.54c-0.11-0.08-0.32-0.12-0.64-0.12h-17.44
		c-0.32,0-0.56-0.04-0.72-0.12s-0.24-0.24-0.24-0.48V23.4z"/>
	<path class="st4" d="M509.03,65.22c-3.81-1.76-6.73-4.34-8.76-7.74s-3.04-7.5-3.04-12.3c0-4.84,1.03-8.99,3.08-12.45
		c2.05-3.46,4.99-6.09,8.8-7.89c3.81-1.8,8.33-2.7,13.56-2.7c5.17,0,9.67,0.9,13.48,2.7c3.81,1.8,6.73,4.42,8.76,7.86
		c2.03,3.44,3.04,7.58,3.04,12.42c0,4.8-1.01,8.9-3.04,12.3c-2.03,3.4-4.95,5.99-8.76,7.77s-8.33,2.67-13.56,2.67
		C517.36,67.86,512.84,66.98,509.03,65.22z M535.67,58.98c2.85-3,4.28-7.6,4.28-13.8c0-6.32-1.45-11.01-4.36-14.07
		s-7.21-4.59-12.92-4.59c-5.81,0-10.17,1.54-13.08,4.62c-2.91,3.08-4.36,7.76-4.36,14.04c0,6.2,1.45,10.8,4.36,13.8
		c2.91,3,7.29,4.5,13.16,4.5C528.51,63.48,532.81,61.98,535.67,58.98z"/>
	<path class="st4" d="M573.87,22.74h5.76c0.64,0,0.96,0.26,0.96,0.78v38.7c0,0.24,0.05,0.4,0.16,0.48c0.11,0.08,0.32,0.12,0.64,0.12
		h27.68c0.32,0,0.56,0.04,0.72,0.12s0.24,0.24,0.24,0.48v3.18c0,0.44-0.32,0.66-0.96,0.66h-35.04c-0.43,0-0.72-0.06-0.88-0.18
		s-0.24-0.34-0.24-0.66V23.58C572.91,23.02,573.23,22.74,573.87,22.74z"/>
	<path class="st4" d="M620.83,23.4c0-0.44,0.32-0.66,0.96-0.66h43.04c0.64,0,0.96,0.22,0.96,0.66v3.12c0,0.24-0.08,0.4-0.24,0.48
		s-0.4,0.12-0.72,0.12h-16.24c-0.32,0-0.55,0.04-0.68,0.12s-0.2,0.24-0.2,0.48v38.76c0,0.52-0.32,0.78-0.96,0.78h-5.76
		c-0.64,0-0.96-0.26-0.96-0.78v-38.7c0-0.28-0.05-0.46-0.16-0.54c-0.11-0.08-0.32-0.12-0.64-0.12h-17.44
		c-0.32,0-0.56-0.04-0.72-0.12s-0.24-0.24-0.24-0.48L620.83,23.4L620.83,23.4z"/>
	<path class="st4" d="M697.14,46.44c-0.21,0-0.37,0.05-0.48,0.15s-0.16,0.21-0.16,0.33v19.44c0,0.32-0.11,0.55-0.32,0.69
		s-0.56,0.21-1.04,0.21h-5.2c-0.43,0-0.72-0.06-0.88-0.18s-0.24-0.34-0.24-0.66V23.58c0-0.56,0.32-0.84,0.96-0.84h5.76
		c0.64,0,0.96,0.26,0.96,0.78v17.64c0,0.28,0.07,0.47,0.2,0.57s0.36,0.15,0.68,0.15h26.24c0.53,0,0.8-0.24,0.8-0.72v-17.7
		c0-0.48,0.29-0.72,0.88-0.72h5.84c0.37,0,0.63,0.06,0.76,0.18s0.2,0.34,0.2,0.66v42.84c0,0.56-0.37,0.84-1.12,0.84h-5.2
		c-0.48,0-0.83-0.07-1.04-0.21c-0.21-0.14-0.32-0.37-0.32-0.69V46.98c0-0.36-0.24-0.54-0.72-0.54L697.14,46.44L697.14,46.44z"/>
	<path class="st4" d="M768.86,65.22c-3.81-1.76-6.73-4.34-8.76-7.74s-3.04-7.5-3.04-12.3c0-4.84,1.03-8.99,3.08-12.45
		c2.05-3.46,4.99-6.09,8.8-7.89c3.81-1.8,8.33-2.7,13.56-2.7c5.17,0,9.67,0.9,13.48,2.7c3.81,1.8,6.73,4.42,8.76,7.86
		c2.03,3.44,3.04,7.58,3.04,12.42c0,4.8-1.01,8.9-3.04,12.3c-2.03,3.4-4.95,5.99-8.76,7.77s-8.33,2.67-13.56,2.67
		C777.2,67.86,772.68,66.98,768.86,65.22z M795.5,58.98c2.85-3,4.28-7.6,4.28-13.8c0-6.32-1.45-11.01-4.36-14.07
		s-7.21-4.59-12.92-4.59c-5.81,0-10.17,1.54-13.08,4.62c-2.91,3.08-4.36,7.76-4.36,14.04c0,6.2,1.45,10.8,4.36,13.8
		s7.29,4.5,13.16,4.5C788.34,63.48,792.65,61.98,795.5,58.98z"/>
	<path class="st4" d="M833.7,22.74h35.2c0.53,0,0.8,0.22,0.8,0.66v3.06c0,0.48-0.35,0.72-1.04,0.72h-27.2
		c-0.43,0-0.71,0.05-0.84,0.15s-0.2,0.29-0.2,0.57v14.76c0,0.44,0.29,0.66,0.88,0.66h21.36c0.59,0,0.88,0.2,0.88,0.6v3.18
		c0,0.2-0.07,0.34-0.2,0.42c-0.13,0.08-0.36,0.12-0.68,0.12H841.3c-0.59,0-0.88,0.22-0.88,0.66v18.18c0,0.52-0.37,0.78-1.12,0.78
		h-5.44c-0.43,0-0.72-0.06-0.88-0.18s-0.24-0.34-0.24-0.66V23.58C832.74,23.02,833.06,22.74,833.7,22.74z"/>
	<path class="st4" d="M893.78,22.74h35.2c0.53,0,0.8,0.22,0.8,0.66v3.06c0,0.48-0.35,0.72-1.04,0.72h-27.2
		c-0.43,0-0.71,0.05-0.84,0.15s-0.2,0.29-0.2,0.57v14.76c0,0.44,0.29,0.66,0.88,0.66h21.36c0.59,0,0.88,0.2,0.88,0.6v3.18
		c0,0.2-0.07,0.34-0.2,0.42c-0.13,0.08-0.36,0.12-0.68,0.12h-21.36c-0.59,0-0.88,0.22-0.88,0.66v18.18c0,0.52-0.37,0.78-1.12,0.78
		h-5.44c-0.43,0-0.72-0.06-0.88-0.18s-0.24-0.34-0.24-0.66V23.58C892.82,23.02,893.14,22.74,893.78,22.74z"/>
</g>
<g id="icon">
	<g id="icon_bottom_1_">
		<path class="st5" d="M34.05,34.16c-0.29,0.48-0.43,1.2-0.43,2.16s0.19,1.68,0.58,2.16c0.38,0.48,1.06,0.72,2.02,0.72h23.4
			c4.9,0,8.42,0.98,10.58,2.95s3.24,4.75,3.24,8.35v7.2c0,1.97-0.25,3.66-0.76,5.08c-0.5,1.42-1.34,2.59-2.52,3.53
			s-2.71,1.63-4.61,2.09c-1.9,0.46-4.24,0.68-7.02,0.68H0V90h73.83C82.76,90,90,82.76,90,73.83V37.05c0-1.99-1.61-3.6-3.6-3.6H35.92
			C34.96,33.44,34.34,33.68,34.05,34.16z"/>
	</g>
	<g id="icon_top_1_">
		<path class="st5" d="M16.17,0C7.24,0,0,7.24,0,16.17v37.22c0,1.99,1.61,3.6,3.6,3.6h50.54c0.96,0,1.6-0.24,1.91-0.72
			c0.31-0.48,0.47-1.27,0.47-2.38c0-0.96-0.18-1.64-0.54-2.05c-0.36-0.41-0.97-0.61-1.84-0.61H30.38c-4.56,0-7.99-0.88-10.3-2.63
			c-2.3-1.75-3.46-4.19-3.46-7.31v-8.57c0-2.02,0.23-3.74,0.68-5.18c0.46-1.44,1.26-2.6,2.41-3.49c1.15-0.89,2.75-1.54,4.79-1.94
			c2.04-0.41,4.64-0.61,7.81-0.61h57.67V0.01H16.17V0z"/>
	</g>
</g>
</svg>
