<?xml version="1.0" encoding="utf-8"?>
<!-- Generator: Adobe Illustrator 24.0.1, SVG Export Plug-In . SVG Version: 6.00 Build 0)  -->
<svg version="1.1" id="logo" xmlns="http://www.w3.org/2000/svg" xmlns:xlink="http://www.w3.org/1999/xlink" x="0px" y="0px"
	 viewBox="0 0 1087.45 576.15" style="enable-background:new 0 0 1087.45 576.15;" xml:space="preserve">
<style type="text/css">
	.st0{display:none;}
	.st1{display:inline;fill:#111111;}
	.st2{display:none;fill:#111111;}
	.st3{font-family:'LibreFranklin-Regular';}
	.st4{font-size:110px;}
	.st5{letter-spacing:16;}
	.st6{fill:#111111;}
	.st7{fill:#AA1919;}
</style>
<g id="name_expanded" class="st0">
	<path class="st1" d="M30.8,519.31c-5.5,0-9.83,0.91-12.98,2.72c-3.15,1.81-4.73,4.35-4.73,7.59c0,4.29,3.92,7.42,11.77,9.41
		l15.95,3.96c6.45,1.6,11.13,3.73,14.03,6.39c2.9,2.67,4.34,5.93,4.34,9.78c0,5.28-2.6,9.43-7.81,12.46
		c-5.21,3.03-12.32,4.54-21.34,4.54c-6.6,0-12.41-0.88-17.44-2.64c-5.02-1.76-9.08-4.32-12.15-7.67C0.15,565.4,0,565.13,0,565.02
		c0-0.38,0.37-0.77,1.1-1.16l3.96-2.06c0.66-0.33,1.17-0.5,1.54-0.5c0.44,0,0.84,0.17,1.21,0.5c3.15,3.03,6.27,5.17,9.35,6.44
		c3.08,1.27,7.22,1.9,12.43,1.9c6.16,0,10.94-0.83,14.35-2.48c3.41-1.65,5.11-4.21,5.11-7.67c0-2.15-0.9-3.97-2.69-5.49
		c-1.8-1.51-5.04-2.93-9.73-4.25l-16.72-4.29c-5.79-1.49-10.06-3.62-12.81-6.39c-2.75-2.78-4.13-5.84-4.13-9.2
		c0-3.41,1.15-6.41,3.46-8.99c2.31-2.58,5.57-4.58,9.79-5.98c4.22-1.4,9.08-2.1,14.58-2.1c5.35,0,10.21,0.72,14.57,2.15
		c4.36,1.43,8.09,3.44,11.17,6.02c0.37,0.28,0.55,0.55,0.55,0.82c0,0.28-0.18,0.52-0.55,0.74l-5.06,2.97
		c-0.22,0.17-0.44,0.25-0.66,0.25c-0.22,0-0.66-0.25-1.32-0.74C44.81,521.37,38.57,519.31,30.8,519.31z"/>
	<path class="st1" d="M137.11,515.6c4.36,1.54,7.98,3.6,10.84,6.19c2.86,2.59,4.58,5.39,5.17,8.42l0.11,0.58
		c0,0.22-0.09,0.38-0.27,0.5c-0.18,0.11-0.39,0.17-0.6,0.17l-8.25,0.5h-0.22c-0.22,0-0.4-0.07-0.55-0.21
		c-0.15-0.14-0.26-0.34-0.33-0.62c-1.1-3.58-3.37-6.44-6.82-8.58c-3.45-2.15-7.63-3.22-12.54-3.22c-7.7,0-13.58,2.13-17.66,6.39
		c-4.07,4.26-6.1,10.63-6.1,19.1c0,8.31,2.04,14.56,6.1,18.77c4.07,4.21,10.14,6.31,18.21,6.31c5.21,0,9.55-0.95,13.04-2.85
		c3.48-1.9,6.29-4.88,8.42-8.95c0.15-0.38,0.59-0.5,1.32-0.33l6.49,1.15c0.51,0.11,0.7,0.5,0.55,1.16c-1.1,2.75-3.01,5.35-5.72,7.8
		c-2.71,2.45-6.16,4.44-10.34,5.98s-8.91,2.31-14.19,2.31c-7.26,0-13.49-1.26-18.7-3.79c-5.21-2.53-9.2-6.16-11.99-10.89
		c-2.79-4.73-4.18-10.34-4.18-16.83c0-6.49,1.38-12.09,4.13-16.79c2.75-4.7,6.71-8.3,11.88-10.81c5.17-2.5,11.31-3.75,18.43-3.75
		C128.15,513.29,132.75,514.06,137.11,515.6z"/>
	<path class="st1" d="M199.37,572.52c-5.24-2.42-9.26-5.97-12.04-10.64c-2.79-4.67-4.18-10.31-4.18-16.91
		c0-6.65,1.41-12.36,4.23-17.12c2.82-4.76,6.86-8.37,12.1-10.85c5.24-2.48,11.46-3.71,18.65-3.71c7.11,0,13.29,1.24,18.54,3.71
		c5.24,2.47,9.26,6.08,12.04,10.81c2.79,4.73,4.18,10.42,4.18,17.08c0,6.6-1.39,12.24-4.18,16.91c-2.79,4.68-6.8,8.24-12.04,10.68
		c-5.24,2.45-11.46,3.67-18.65,3.67C210.83,576.15,204.61,574.94,199.37,572.52z M236,563.94c3.92-4.13,5.89-10.45,5.89-18.98
		c0-8.69-2-15.14-6-19.35c-4-4.21-9.92-6.31-17.77-6.31c-7.99,0-13.99,2.12-17.98,6.35c-4,4.24-6,10.67-6,19.3
		c0,8.53,2,14.85,6,18.98c4,4.13,10.03,6.19,18.1,6.19C226.16,570.13,232.08,568.07,236,563.94z"/>
	<path class="st1" d="M275.11,515.02c0-0.6,0.44-0.91,1.32-0.91h59.18c0.88,0,1.32,0.3,1.32,0.91v4.29c0,0.33-0.11,0.55-0.33,0.66
		c-0.22,0.11-0.55,0.17-0.99,0.17h-22.33c-0.44,0-0.75,0.06-0.94,0.17c-0.18,0.11-0.27,0.33-0.27,0.66v53.29
		c0,0.71-0.44,1.07-1.32,1.07h-7.92c-0.88,0-1.32-0.36-1.32-1.07v-53.21c0-0.38-0.07-0.63-0.22-0.74c-0.15-0.11-0.44-0.17-0.88-0.17
		h-23.98c-0.44,0-0.77-0.05-0.99-0.17c-0.22-0.11-0.33-0.33-0.33-0.66V515.02z"/>
	<path class="st1" d="M362.56,515.02c0-0.6,0.44-0.91,1.32-0.91h59.18c0.88,0,1.32,0.3,1.32,0.91v4.29c0,0.33-0.11,0.55-0.33,0.66
		c-0.22,0.11-0.55,0.17-0.99,0.17h-22.33c-0.44,0-0.75,0.06-0.94,0.17c-0.18,0.11-0.27,0.33-0.27,0.66v53.29
		c0,0.71-0.44,1.07-1.32,1.07h-7.92c-0.88,0-1.32-0.36-1.32-1.07v-53.21c0-0.38-0.07-0.63-0.22-0.74c-0.15-0.11-0.44-0.17-0.88-0.17
		h-23.98c-0.44,0-0.77-0.05-0.99-0.17c-0.22-0.11-0.33-0.33-0.33-0.66V515.02z"/>
	<path class="st1" d="M508.91,572.52c-5.24-2.42-9.26-5.97-12.04-10.64c-2.79-4.67-4.18-10.31-4.18-16.91
		c0-6.65,1.41-12.36,4.23-17.12c2.82-4.76,6.86-8.37,12.1-10.85c5.24-2.48,11.46-3.71,18.65-3.71c7.11,0,13.29,1.24,18.54,3.71
		c5.24,2.47,9.26,6.08,12.05,10.81c2.79,4.73,4.18,10.42,4.18,17.08c0,6.6-1.39,12.24-4.18,16.91c-2.79,4.68-6.8,8.24-12.05,10.68
		c-5.24,2.45-11.46,3.67-18.65,3.67C520.37,576.15,514.15,574.94,508.91,572.52z M545.54,563.94c3.92-4.13,5.89-10.45,5.89-18.98
		c0-8.69-2-15.14-6-19.35c-4-4.21-9.92-6.31-17.77-6.31c-7.99,0-13.99,2.12-17.98,6.35c-4,4.24-6,10.67-6,19.3
		c0,8.53,2,14.85,6,18.98c4,4.13,10.03,6.19,18.1,6.19C535.69,570.13,541.62,568.07,545.54,563.94z"/>
	<path class="st1" d="M598.06,514.11h7.92c0.88,0,1.32,0.36,1.32,1.07v53.21c0,0.33,0.07,0.55,0.22,0.66
		c0.15,0.11,0.44,0.16,0.88,0.16h38.06c0.44,0,0.77,0.06,0.99,0.17c0.22,0.11,0.33,0.33,0.33,0.66v4.37c0,0.61-0.44,0.91-1.32,0.91
		h-48.18c-0.59,0-0.99-0.08-1.21-0.25c-0.22-0.17-0.33-0.47-0.33-0.91v-58.9C596.74,514.5,597.18,514.11,598.06,514.11z"/>
	<path class="st1" d="M662.63,515.02c0-0.6,0.44-0.91,1.32-0.91h59.18c0.88,0,1.32,0.3,1.32,0.91v4.29c0,0.33-0.11,0.55-0.33,0.66
		c-0.22,0.11-0.55,0.17-0.99,0.17H700.8c-0.44,0-0.75,0.06-0.93,0.17c-0.19,0.11-0.28,0.33-0.28,0.66v53.29
		c0,0.71-0.44,1.07-1.32,1.07h-7.92c-0.88,0-1.32-0.36-1.32-1.07v-53.21c0-0.38-0.07-0.63-0.22-0.74c-0.15-0.11-0.44-0.17-0.88-0.17
		h-23.98c-0.44,0-0.77-0.05-0.99-0.17c-0.22-0.11-0.33-0.33-0.33-0.66V515.02z"/>
	<path class="st1" d="M767.57,546.7c-0.29,0-0.51,0.07-0.66,0.21c-0.15,0.14-0.22,0.29-0.22,0.45v26.73c0,0.44-0.15,0.76-0.44,0.95
		c-0.29,0.19-0.77,0.29-1.43,0.29h-7.15c-0.59,0-0.99-0.08-1.21-0.25s-0.33-0.47-0.33-0.91v-58.9c0-0.77,0.44-1.16,1.32-1.16h7.92
		c0.88,0,1.32,0.36,1.32,1.07v24.25c0,0.39,0.09,0.65,0.27,0.78c0.18,0.14,0.5,0.21,0.94,0.21h36.08c0.73,0,1.1-0.33,1.1-0.99V515.1
		c0-0.66,0.4-0.99,1.21-0.99h8.03c0.51,0,0.86,0.08,1.04,0.25c0.18,0.17,0.27,0.47,0.27,0.91v58.9c0,0.77-0.51,1.16-1.54,1.16h-7.15
		c-0.66,0-1.14-0.1-1.43-0.29c-0.29-0.19-0.44-0.51-0.44-0.95v-26.65c0-0.5-0.33-0.74-0.99-0.74H767.57z"/>
	<path class="st1" d="M866.19,572.52c-5.24-2.42-9.26-5.97-12.04-10.64c-2.79-4.67-4.18-10.31-4.18-16.91
		c0-6.65,1.41-12.36,4.23-17.12c2.82-4.76,6.86-8.37,12.1-10.85c5.24-2.48,11.46-3.71,18.64-3.71c7.11,0,13.29,1.24,18.54,3.71
		c5.24,2.47,9.26,6.08,12.04,10.81c2.79,4.73,4.18,10.42,4.18,17.08c0,6.6-1.39,12.24-4.18,16.91c-2.79,4.68-6.8,8.24-12.04,10.68
		c-5.24,2.45-11.46,3.67-18.65,3.67C877.64,576.15,871.43,574.94,866.19,572.52z M902.82,563.94c3.92-4.13,5.88-10.45,5.88-18.98
		c0-8.69-2-15.14-6-19.35c-4-4.21-9.92-6.31-17.76-6.31c-7.99,0-13.99,2.12-17.99,6.35c-4,4.24-5.99,10.67-5.99,19.3
		c0,8.53,2,14.85,5.99,18.98c4,4.13,10.03,6.19,18.1,6.19C892.97,570.13,898.89,568.07,902.82,563.94z"/>
	<path class="st1" d="M955.34,514.11h48.4c0.73,0,1.1,0.3,1.1,0.91v4.21c0,0.66-0.48,0.99-1.43,0.99h-37.4
		c-0.59,0-0.97,0.07-1.16,0.21c-0.18,0.14-0.27,0.4-0.27,0.78v20.29c0,0.61,0.4,0.91,1.21,0.91h29.37c0.81,0,1.21,0.28,1.21,0.83
		v4.37c0,0.28-0.09,0.47-0.27,0.58c-0.18,0.11-0.5,0.17-0.94,0.17h-29.37c-0.81,0-1.21,0.3-1.21,0.91v25c0,0.71-0.51,1.07-1.54,1.07
		h-7.48c-0.59,0-0.99-0.08-1.21-0.25s-0.33-0.47-0.33-0.91v-58.9C954.02,514.5,954.46,514.11,955.34,514.11z"/>
	<path class="st1" d="M1037.95,514.11h48.4c0.73,0,1.1,0.3,1.1,0.91v4.21c0,0.66-0.48,0.99-1.43,0.99h-37.4
		c-0.59,0-0.97,0.07-1.16,0.21c-0.18,0.14-0.27,0.4-0.27,0.78v20.29c0,0.61,0.4,0.91,1.21,0.91h29.37c0.81,0,1.21,0.28,1.21,0.83
		v4.37c0,0.28-0.09,0.47-0.27,0.58c-0.18,0.11-0.5,0.17-0.94,0.17h-29.37c-0.81,0-1.21,0.3-1.21,0.91v25c0,0.71-0.51,1.07-1.54,1.07
		h-7.48c-0.59,0-0.99-0.08-1.21-0.25s-0.33-0.47-0.33-0.91v-58.9C1036.63,514.5,1037.07,514.11,1037.95,514.11z"/>
</g>
<text id="name_1_" transform="matrix(1 0 0 0.75 -5.2 575.3279)" class="st2 st3 st4 st5">Scott Olthoff</text>
<g id="name_3_">
	<path class="st6" d="M220.04,269.6c-4,0-7.15,0.66-9.44,1.98c-2.29,1.32-3.44,3.16-3.44,5.52c0,3.12,2.85,5.4,8.56,6.84l11.6,2.88
		c4.69,1.16,8.09,2.71,10.2,4.65c2.11,1.94,3.16,4.31,3.16,7.11c0,3.84-1.89,6.86-5.68,9.06c-3.79,2.2-8.96,3.3-15.52,3.3
		c-4.8,0-9.03-0.64-12.68-1.92c-3.65-1.28-6.6-3.14-8.84-5.58c-0.21-0.32-0.32-0.52-0.32-0.6c0-0.28,0.27-0.56,0.8-0.84l2.88-1.5
		c0.48-0.24,0.85-0.36,1.12-0.36c0.32,0,0.61,0.12,0.88,0.36c2.29,2.2,4.56,3.76,6.8,4.68c2.24,0.92,5.25,1.38,9.04,1.38
		c4.48,0,7.96-0.6,10.44-1.8c2.48-1.2,3.72-3.06,3.72-5.58c0-1.56-0.65-2.89-1.96-3.99c-1.31-1.1-3.67-2.13-7.08-3.09l-12.16-3.12
		c-4.21-1.08-7.32-2.63-9.32-4.65c-2-2.02-3-4.25-3-6.69c0-2.48,0.84-4.66,2.52-6.54c1.68-1.88,4.05-3.33,7.12-4.35
		c3.07-1.02,6.6-1.53,10.6-1.53c3.89,0,7.43,0.52,10.6,1.56c3.17,1.04,5.88,2.5,8.12,4.38c0.27,0.2,0.4,0.4,0.4,0.6
		c0,0.2-0.13,0.38-0.4,0.54l-3.68,2.16c-0.16,0.12-0.32,0.18-0.48,0.18s-0.48-0.18-0.96-0.54
		C230.23,271.1,225.69,269.6,220.04,269.6z"/>
	<path class="st6" d="M297.36,266.9c3.17,1.12,5.8,2.62,7.88,4.5c2.08,1.88,3.33,3.92,3.76,6.12l0.08,0.42
		c0,0.16-0.07,0.28-0.2,0.36c-0.13,0.08-0.28,0.12-0.44,0.12l-6,0.36h-0.16c-0.16,0-0.29-0.05-0.4-0.15
		c-0.11-0.1-0.19-0.25-0.24-0.45c-0.8-2.6-2.45-4.68-4.96-6.24c-2.51-1.56-5.55-2.34-9.12-2.34c-5.6,0-9.88,1.55-12.84,4.65
		c-2.96,3.1-4.44,7.73-4.44,13.89c0,6.04,1.48,10.59,4.44,13.65c2.96,3.06,7.37,4.59,13.24,4.59c3.79,0,6.95-0.69,9.48-2.07
		s4.57-3.55,6.12-6.51c0.11-0.28,0.43-0.36,0.96-0.24l4.72,0.84c0.37,0.08,0.51,0.36,0.4,0.84c-0.8,2-2.19,3.89-4.16,5.67
		c-1.97,1.78-4.48,3.23-7.52,4.35s-6.48,1.68-10.32,1.68c-5.28,0-9.81-0.92-13.6-2.76c-3.79-1.84-6.69-4.48-8.72-7.92
		c-2.03-3.44-3.04-7.52-3.04-12.24c0-4.72,1-8.79,3-12.21s4.88-6.04,8.64-7.86s8.23-2.73,13.4-2.73
		C290.84,265.22,294.19,265.78,297.36,266.9z"/>
	<path class="st6" d="M342.64,308.3c-3.81-1.76-6.73-4.34-8.76-7.74c-2.03-3.4-3.04-7.5-3.04-12.3c0-4.84,1.03-8.99,3.08-12.45
		c2.05-3.46,4.99-6.09,8.8-7.89c3.81-1.8,8.33-2.7,13.56-2.7c5.17,0,9.67,0.9,13.48,2.7c3.81,1.8,6.73,4.42,8.76,7.86
		c2.03,3.44,3.04,7.58,3.04,12.42c0,4.8-1.01,8.9-3.04,12.3c-2.03,3.4-4.95,5.99-8.76,7.77c-3.81,1.78-8.33,2.67-13.56,2.67
		C350.97,310.94,346.45,310.06,342.64,308.3z M369.28,302.06c2.85-3,4.28-7.6,4.28-13.8c0-6.32-1.45-11.01-4.36-14.07
		c-2.91-3.06-7.21-4.59-12.92-4.59c-5.81,0-10.17,1.54-13.08,4.62c-2.91,3.08-4.36,7.76-4.36,14.04c0,6.2,1.45,10.8,4.36,13.8
		c2.91,3,7.29,4.5,13.16,4.5C362.12,306.56,366.42,305.06,369.28,302.06z"/>
	<path class="st6" d="M397.72,266.48c0-0.44,0.32-0.66,0.96-0.66h43.04c0.64,0,0.96,0.22,0.96,0.66v3.12c0,0.24-0.08,0.4-0.24,0.48
		s-0.4,0.12-0.72,0.12h-16.24c-0.32,0-0.55,0.04-0.68,0.12c-0.13,0.08-0.2,0.24-0.2,0.48v38.76c0,0.52-0.32,0.78-0.96,0.78h-5.76
		c-0.64,0-0.96-0.26-0.96-0.78v-38.7c0-0.28-0.05-0.46-0.16-0.54c-0.11-0.08-0.32-0.12-0.64-0.12h-17.44
		c-0.32,0-0.56-0.04-0.72-0.12c-0.16-0.08-0.24-0.24-0.24-0.48V266.48z"/>
	<path class="st6" d="M461.32,266.48c0-0.44,0.32-0.66,0.96-0.66h43.04c0.64,0,0.96,0.22,0.96,0.66v3.12c0,0.24-0.08,0.4-0.24,0.48
		s-0.4,0.12-0.72,0.12h-16.24c-0.32,0-0.55,0.04-0.68,0.12c-0.13,0.08-0.2,0.24-0.2,0.48v38.76c0,0.52-0.32,0.78-0.96,0.78h-5.76
		c-0.64,0-0.96-0.26-0.96-0.78v-38.7c0-0.28-0.05-0.46-0.16-0.54c-0.11-0.08-0.32-0.12-0.64-0.12h-17.44
		c-0.32,0-0.56-0.04-0.72-0.12s-0.24-0.24-0.24-0.48V266.48z"/>
	<path class="st6" d="M567.76,308.3c-3.81-1.76-6.73-4.34-8.76-7.74c-2.03-3.4-3.04-7.5-3.04-12.3c0-4.84,1.03-8.99,3.08-12.45
		c2.05-3.46,4.99-6.09,8.8-7.89c3.81-1.8,8.33-2.7,13.56-2.7c5.17,0,9.67,0.9,13.48,2.7c3.81,1.8,6.73,4.42,8.76,7.86
		c2.03,3.44,3.04,7.58,3.04,12.42c0,4.8-1.01,8.9-3.04,12.3c-2.03,3.4-4.95,5.99-8.76,7.77c-3.81,1.78-8.33,2.67-13.56,2.67
		C576.09,310.94,571.57,310.06,567.76,308.3z M594.4,302.06c2.85-3,4.28-7.6,4.28-13.8c0-6.32-1.45-11.01-4.36-14.07
		c-2.91-3.06-7.21-4.59-12.92-4.59c-5.81,0-10.17,1.54-13.08,4.62c-2.91,3.08-4.36,7.76-4.36,14.04c0,6.2,1.45,10.8,4.36,13.8
		c2.91,3,7.29,4.5,13.16,4.5C587.24,306.56,591.54,305.06,594.4,302.06z"/>
	<path class="st6" d="M632.6,265.82h5.76c0.64,0,0.96,0.26,0.96,0.78v38.7c0,0.24,0.05,0.4,0.16,0.48c0.11,0.08,0.32,0.12,0.64,0.12
		h27.68c0.32,0,0.56,0.04,0.72,0.12c0.16,0.08,0.24,0.24,0.24,0.48v3.18c0,0.44-0.32,0.66-0.96,0.66h-35.04
		c-0.43,0-0.72-0.06-0.88-0.18s-0.24-0.34-0.24-0.66v-42.84C631.64,266.1,631.96,265.82,632.6,265.82z"/>
	<path class="st6" d="M679.56,266.48c0-0.44,0.32-0.66,0.96-0.66h43.04c0.64,0,0.96,0.22,0.96,0.66v3.12c0,0.24-0.08,0.4-0.24,0.48
		s-0.4,0.12-0.72,0.12h-16.24c-0.32,0-0.55,0.04-0.68,0.12c-0.13,0.08-0.2,0.24-0.2,0.48v38.76c0,0.52-0.32,0.78-0.96,0.78h-5.76
		c-0.64,0-0.96-0.26-0.96-0.78v-38.7c0-0.28-0.05-0.46-0.16-0.54c-0.11-0.08-0.32-0.12-0.64-0.12h-17.44
		c-0.32,0-0.56-0.04-0.72-0.12s-0.24-0.24-0.24-0.48V266.48z"/>
	<path class="st6" d="M755.87,289.52c-0.21,0-0.37,0.05-0.48,0.15c-0.11,0.1-0.16,0.21-0.16,0.33v19.44c0,0.32-0.11,0.55-0.32,0.69
		c-0.21,0.14-0.56,0.21-1.04,0.21h-5.2c-0.43,0-0.72-0.06-0.88-0.18s-0.24-0.34-0.24-0.66v-42.84c0-0.56,0.32-0.84,0.96-0.84h5.76
		c0.64,0,0.96,0.26,0.96,0.78v17.64c0,0.28,0.07,0.47,0.2,0.57c0.13,0.1,0.36,0.15,0.68,0.15h26.24c0.53,0,0.8-0.24,0.8-0.72v-17.7
		c0-0.48,0.29-0.72,0.88-0.72h5.84c0.37,0,0.63,0.06,0.76,0.18c0.13,0.12,0.2,0.34,0.2,0.66v42.84c0,0.56-0.37,0.84-1.12,0.84h-5.2
		c-0.48,0-0.83-0.07-1.04-0.21c-0.21-0.14-0.32-0.37-0.32-0.69v-19.38c0-0.36-0.24-0.54-0.72-0.54H755.87z"/>
	<path class="st6" d="M827.59,308.3c-3.81-1.76-6.73-4.34-8.76-7.74c-2.03-3.4-3.04-7.5-3.04-12.3c0-4.84,1.03-8.99,3.08-12.45
		c2.05-3.46,4.99-6.09,8.8-7.89c3.81-1.8,8.33-2.7,13.56-2.7c5.17,0,9.67,0.9,13.48,2.7c3.81,1.8,6.73,4.42,8.76,7.86
		c2.03,3.44,3.04,7.58,3.04,12.42c0,4.8-1.01,8.9-3.04,12.3c-2.03,3.4-4.95,5.99-8.76,7.77c-3.81,1.78-8.33,2.67-13.56,2.67
		C835.93,310.94,831.41,310.06,827.59,308.3z M854.23,302.06c2.85-3,4.28-7.6,4.28-13.8c0-6.32-1.45-11.01-4.36-14.07
		c-2.91-3.06-7.21-4.59-12.92-4.59c-5.81,0-10.17,1.54-13.08,4.62c-2.91,3.08-4.36,7.76-4.36,14.04c0,6.2,1.45,10.8,4.36,13.8
		c2.91,3,7.29,4.5,13.16,4.5C847.07,306.56,851.38,305.06,854.23,302.06z"/>
	<path class="st6" d="M892.43,265.82h35.2c0.53,0,0.8,0.22,0.8,0.66v3.06c0,0.48-0.35,0.72-1.04,0.72h-27.2
		c-0.43,0-0.71,0.05-0.84,0.15c-0.13,0.1-0.2,0.29-0.2,0.57v14.76c0,0.44,0.29,0.66,0.88,0.66h21.36c0.59,0,0.88,0.2,0.88,0.6v3.18
		c0,0.2-0.07,0.34-0.2,0.42c-0.13,0.08-0.36,0.12-0.68,0.12h-21.36c-0.59,0-0.88,0.22-0.88,0.66v18.18c0,0.52-0.37,0.78-1.12,0.78
		h-5.44c-0.43,0-0.72-0.06-0.88-0.18s-0.24-0.34-0.24-0.66v-42.84C891.47,266.1,891.79,265.82,892.43,265.82z"/>
	<path class="st6" d="M952.51,265.82h35.2c0.53,0,0.8,0.22,0.8,0.66v3.06c0,0.48-0.35,0.72-1.04,0.72h-27.2
		c-0.43,0-0.71,0.05-0.84,0.15c-0.13,0.1-0.2,0.29-0.2,0.57v14.76c0,0.44,0.29,0.66,0.88,0.66h21.36c0.59,0,0.88,0.2,0.88,0.6v3.18
		c0,0.2-0.07,0.34-0.2,0.42c-0.13,0.08-0.36,0.12-0.68,0.12h-21.36c-0.59,0-0.88,0.22-0.88,0.66v18.18c0,0.52-0.37,0.78-1.12,0.78
		h-5.44c-0.43,0-0.72-0.06-0.88-0.18s-0.24-0.34-0.24-0.66v-42.84C951.55,266.1,951.87,265.82,952.51,265.82z"/>
</g>
<g id="icon">
	<g id="icon_bottom_1_">
		<path class="st7" d="M92.78,277.24c-0.29,0.48-0.43,1.2-0.43,2.16c0,0.96,0.19,1.68,0.58,2.16c0.38,0.48,1.06,0.72,2.02,0.72h23.4
			c4.9,0,8.42,0.98,10.58,2.95c2.16,1.97,3.24,4.75,3.24,8.35v7.2c0,1.97-0.25,3.66-0.76,5.08c-0.5,1.42-1.34,2.59-2.52,3.53
			c-1.18,0.94-2.71,1.63-4.61,2.09c-1.9,0.46-4.24,0.68-7.02,0.68H58.73v20.92h73.83c8.93,0,16.17-7.24,16.17-16.17v-36.78
			c0-1.99-1.61-3.6-3.6-3.6H94.65C93.69,276.52,93.07,276.76,92.78,277.24z"/>
	</g>
	<g id="icon_top_1_">
		<path class="st7" d="M74.9,243.08c-8.93,0-16.17,7.24-16.17,16.17v37.22c0,1.99,1.61,3.6,3.6,3.6h50.54c0.96,0,1.6-0.24,1.91-0.72
			c0.31-0.48,0.47-1.27,0.47-2.38c0-0.96-0.18-1.64-0.54-2.05c-0.36-0.41-0.97-0.61-1.84-0.61H89.11c-4.56,0-7.99-0.88-10.3-2.63
			c-2.3-1.75-3.46-4.19-3.46-7.31v-8.57c0-2.02,0.23-3.74,0.68-5.18c0.46-1.44,1.26-2.6,2.41-3.49c1.15-0.89,2.75-1.54,4.79-1.94
			c2.04-0.41,4.64-0.61,7.81-0.61h57.67v-21.49H74.9z"/>
	</g>
</g>
</svg>
