<?xml version="1.0" encoding="utf-8"?>
<!-- Generator: Adobe Illustrator 24.0.1, SVG Export Plug-In . SVG Version: 6.00 Build 0)  -->
<svg version="1.1" xmlns="http://www.w3.org/2000/svg" xmlns:xlink="http://www.w3.org/1999/xlink" x="0px" y="0px"
	 viewBox="0 0 210.97 320" style="enable-background:new 0 0 210.97 320;" xml:space="preserve">
<style type="text/css">
	.st0{display:none;}
	.st1{display:inline;fill:#FFFFFF;stroke:#000000;stroke-miterlimit:10;}
	.st2{display:inline;}
	.st3{fill:none;stroke:#00A651;stroke-width:0.1;}
	.st4{fill:#111111;}
</style>
<g id="Guides_Backup" class="st0">
	<rect x="-541.09" y="-913.07" class="st1" width="97.5" height="2200"/>
	<rect x="-433.59" y="-913.07" class="st1" width="97.5" height="2200"/>
	<rect x="-326.09" y="-913.07" class="st1" width="97.5" height="2200"/>
	<rect x="-218.59" y="-913.07" class="st1" width="97.5" height="2200"/>
	<rect x="-111.09" y="-913.07" class="st1" width="97.5" height="2200"/>
	<rect x="-3.59" y="-913.07" class="st1" width="97.5" height="2200"/>
	<rect x="103.91" y="-913.07" class="st1" width="97.5" height="2200"/>
	<rect x="211.41" y="-913.07" class="st1" width="97.5" height="2200"/>
	<rect x="318.91" y="-913.07" class="st1" width="97.5" height="2200"/>
	<rect x="426.41" y="-913.07" class="st1" width="97.5" height="2200"/>
	<rect x="533.91" y="-913.07" class="st1" width="97.5" height="2200"/>
	<rect x="641.41" y="-913.07" class="st1" width="97.5" height="2200"/>
	<g class="st2">
		<line class="st3" x1="738.91" y1="-1013.57" x2="738.91" y2="1386.43"/>
		<line class="st3" x1="641.41" y1="-1013.57" x2="641.41" y2="1386.43"/>
		<line class="st3" x1="631.41" y1="-1013.57" x2="631.41" y2="1386.43"/>
		<line class="st3" x1="533.91" y1="-1013.57" x2="533.91" y2="1386.43"/>
		<line class="st3" x1="523.91" y1="-1013.57" x2="523.91" y2="1386.43"/>
		<line class="st3" x1="426.41" y1="-1013.57" x2="426.41" y2="1386.43"/>
		<line class="st3" x1="416.41" y1="-1013.57" x2="416.41" y2="1386.43"/>
		<line class="st3" x1="318.91" y1="-1013.57" x2="318.91" y2="1386.43"/>
		<line class="st3" x1="308.91" y1="-1013.57" x2="308.91" y2="1386.43"/>
		<line class="st3" x1="211.41" y1="-1013.57" x2="211.41" y2="1386.43"/>
		<line class="st3" x1="201.41" y1="-1013.57" x2="201.41" y2="1386.43"/>
		<line class="st3" x1="103.91" y1="-1013.57" x2="103.91" y2="1386.43"/>
		<line class="st3" x1="93.91" y1="-1013.57" x2="93.91" y2="1386.43"/>
		<line class="st3" x1="-3.59" y1="-1013.57" x2="-3.59" y2="1386.43"/>
		<line class="st3" x1="-13.59" y1="-1013.57" x2="-13.59" y2="1386.43"/>
		<line class="st3" x1="-111.09" y1="-1013.57" x2="-111.09" y2="1386.43"/>
		<line class="st3" x1="-121.09" y1="-1013.57" x2="-121.09" y2="1386.43"/>
		<line class="st3" x1="-218.59" y1="-1013.57" x2="-218.59" y2="1386.43"/>
		<line class="st3" x1="-228.59" y1="-1013.57" x2="-228.59" y2="1386.43"/>
		<line class="st3" x1="-326.09" y1="-1013.57" x2="-326.09" y2="1386.43"/>
		<line class="st3" x1="-336.09" y1="-1013.57" x2="-336.09" y2="1386.43"/>
		<line class="st3" x1="-433.59" y1="-1013.57" x2="-433.59" y2="1386.43"/>
		<line class="st3" x1="-443.59" y1="-1013.57" x2="-443.59" y2="1386.43"/>
		<line class="st3" x1="-541.09" y1="-1013.57" x2="-541.09" y2="1386.43"/>
		<line class="st3" x1="-601.59" y1="1286.93" x2="878.41" y2="1286.93"/>
		<line class="st3" x1="-601.59" y1="-913.07" x2="878.41" y2="-913.07"/>
	</g>
</g>
<g id="Guides" class="st0">
	<g class="st2">
	</g>
</g>
<g id="Submit_Message">
	<g id="Pigeon">
		<path id="Wing" class="st4" d="M103.86,104.75c-0.13-0.18-0.02-0.42,0.2-0.43c2.94-0.03,18.31,1.18,31.13,28.33
			c0,0,9.99,18.5,12.95,22.94c2.96,4.44,9.62,16.28-1.11,31.08s-22.75,9.43-28.3,6.29c0,0,14.98,22.57,31.45,0.55
			c0,0,8.14-12.39,5.73-25.71c0,0,6.36,9.67,7.35,19.41c0.27,2.63-0.55,2.14-1.56,2.59l-1.53,0.69c-0.34,0.15-0.57,0.49-0.58,0.87
			l0.87,10.08c-0.03,1.15-1.65,2.27-2.69,2.81l-7.86,4.14c-0.92,0.3-1.61,1.06-1.82,2.01l-0.28,1.31c-0.23,1.06-1.23,2.02-2.3,2.2
			c-4.21,0.74-15.81,1.16-19.33-1.53c-3.29-2.51-4.12-5.41-4.89-6.64c-0.35-0.56-0.87-0.97-1.49-1.19l-8.02-2.84
			c-0.94-0.33-1.73-1-2.22-1.88l-4.26-7.63c-0.46-0.82-1.21-1.44-2.1-1.73l-2.58-0.85c-0.93-0.31-1.77-0.85-2.41-1.59
			c-4.59-5.23-22.76-27.57-14.97-44.6c5.41-11.83,8.82-16.82,10.67-18.91c0.8-0.9,1.93-1.4,3.14-1.39c2.77,0.03,9.16-0.54,9.96-8.15
			C106.98,114.99,107.22,109.52,103.86,104.75z M165.31,186.39l0.33,4.75c0.04,0.64-0.41,1.21-1.05,1.3l-1.41,0.2
			c-0.51,0.07-0.87,0.53-0.81,1.04l0.94,9.03c0.05,0.45-0.1,0.91-0.43,1.23c-3.23,3.08-9.81,6.24-12.31,7.38
			c-0.51,0.23-0.67,0.88-0.34,1.33l1.26,1.7c0.35,0.47,0.86,0.78,1.44,0.89c6.29,1.15,15.26,4.29,15.26,4.29
			c5.99,3.21,17.72,2.06,20.74,1.7c0.37-0.04,0.59-0.43,0.46-0.78l-1.96-5.11c-0.13-0.35,0.05-0.74,0.41-0.85l4.61-1.52
			c0.28-0.09,0.35-0.46,0.11-0.65l-11.41-8.81c-0.12-0.09-0.26,0.05-0.19,0.17c2.52,4.8,1.88,8.29,1.38,9.76
			c-0.16,0.48-0.61,0.81-1.11,0.86c-11.33,1.13-22.05-0.51-24.64-0.96c-0.29-0.05-0.43-0.38-0.27-0.63l0.52-0.83
			c1-1.6,2.78-2.55,4.67-2.49l15.39,0.49c0.54,0.02,0.99-0.46,0.91-1c-1.64-11.51-9.08-20.14-11.67-22.86
			C165.82,185.71,165.28,185.95,165.31,186.39z"/>
		<path id="Beak_1_" class="st4" d="M96.44,30.63c0,0-8.79-9.71,0-14.24c0,0,18.73,8.79,19.52,17.57"/>
		<path id="Body" class="st4" d="M78.23,287.25l-9.08-2.24c-1.1-0.09-2.14-0.63-2.76-1.54c-0.46-0.68-0.73-1.49-0.75-2.34
			c-0.08-3.04,0.76-8.46,5.86-15.72c8.14-11.59,9-12.7,9-12.7s2.96-3.08-0.49-7.77c-3.45-4.69,1.23-16.9,1.23-16.9l16.28,2.59
			c0,0,2.69,3.73,1.62,14.52c-0.21,2.09,0.26,4.19,1.4,5.96c1.99,3.09,5.3,7.99,8.02,10.91c1.13,1.21,1.62,2.87,1.4,4.51l-3.23,24.1
			c-0.13,0.95-0.76,1.76-1.65,2.12l-5.6,2.24c-1.61,0.64-3.32,1.01-5.06,1.05c-3.9,0.1-12.39,1.09-17.89,2.38
			c-3.43,0.81-3.89,2.74-4.82,5.2c5.62-2,11.01-3.19,17.68-1.61c0.24,0.02-10,4.07-10,4.07c-2.75,1.05-4.63,3.66-4.65,6.6
			c-0.01,0.96,0.09,1.62,0.09,1.62c7.99-4.91,18.75-7.63,30.51-9.56c-6.51,6.82-0.28,15.25-0.28,15.25s-0.07-3.3,0.94-6.46
			c2.46-7.65,6.27-12.61,8.56-16.41c2.4-3.97,13.38-1.99,14.96-3.24c0.01-0.27-7.19-2.42-9.94-3.05c-0.69-0.16-1.26-0.62-1.56-1.26
			l-1.22-2.53c-0.59-1.22-0.69-2.62-0.27-3.92l4.66-14.64l2.28-18.23c0.19-1.52,0.5-3.01,0.76-4.52c0.26-1.54,0.12-4.84-3.53-10.19
			l15.79-7.65c0,0,34.13,20.34,49.49,23.49c1.21,0.25,2.45,0.04,3.54-0.55l4.25-2.3c1.08-0.59,2.34-0.77,3.54-0.53l12.83,2.58
			c0.69,0.14,1.13-0.72,0.61-1.19l-25.23-23.08c-1.22-1.12-2.84-1.69-4.5-1.6l-3.18,0.19c-1.73,0.1-3.46-0.15-5.09-0.73l-18.07-6.45
			c-1.26-0.45-2.59-0.67-3.92-0.65l-21.64,0.29c-2.57,0.03-5-1.17-6.53-3.23l-3.47-4.69c-0.12-1.78-7.07-4.22-8.61-3.98
			c-2.51-0.55-4.6-2.25-5.66-4.58l-1.73-3.83c0.24-2.93-5.08-4.5-5.08-4.5c-4.25-2.1-7.84-5.31-10.39-9.3
			c-7.21-11.31-18.27-34.21,1.62-57.71c1.98-2.33,5.98-4.93,8.96-5.6c4.23-0.95,8.38-3.72,4.99-11.14
			c-3.33-6.65-11.08-21.52-16.32-27.04c-5.13-5.41-11.1-19.57-10.17-31.15c0.43-5.34,3.34-10.17,7.67-13.32l8.79-6.41
			c0,0-10.3-7.21,0.43-15.72c0,0-1.58-15.12-22.66-15.18C62.85-0.03,54.94,2.75,48.5,7.7C39.35,14.74,27.5,27.78,26.6,48.48
			c-1.48,34.04-2.96,34.04-4.44,38.48c-1.17,3.5-8.91,15.67-14.92,23.97c-3.09,4.26-5.26,9.13-6.27,14.3
			c-1.39,7.07-2.04,15.63,3.43,28.32c0,0,11.84,31.08,26.64,47.36s23.68,22.2,25.16,35.52c1.48,13.32,2.96,17.76,4.44,19.24
			c1.48,1.48,2.96,7.4-2.96,17.76c-3.54,6.19-4.96,9.21-5.53,10.64c-0.32,0.8-1,1.37-1.83,1.57c-3.09,0.73-22.27,3.45-23.33,3.48
			c-3.14,0.09-5.75,1.98-7.23,5.15c6.42-1.13,23.74-1.72,23.74-1.72l-18.74,5.63c-5.19,1.95-5.03,6.51-4.5,8.41
			c-0.23-0.9,9.95-7.36,33.71-9.16c-2.56-0.24-6.21,11.88-2.47,13.57c1.89-7.75,8.09-14.86,12.06-19.9
			C65.89,287.19,77.91,287.68,78.23,287.25z M68.69,23.1c-6.39,1.42-11.95-4.15-10.54-10.54c0.71-3.22,3.31-5.82,6.53-6.53
			c6.39-1.42,11.95,4.15,10.54,10.54C74.5,19.79,71.91,22.38,68.69,23.1z"/>
		<circle id="Eye" class="st4" cx="66.68" cy="14.56" r="3.7"/>
	</g>
</g>
</svg>
