<?xml version="1.0" encoding="utf-8"?>
<!-- Generator: Adobe Illustrator 24.0.1, SVG Export Plug-In . SVG Version: 6.00 Build 0)  -->
<svg version="1.1" xmlns="http://www.w3.org/2000/svg" xmlns:xlink="http://www.w3.org/1999/xlink"
	 x="0px" y="0px" viewBox="0 0 250 250" style="enable-background:new 0 0 250 250;" xml:space="preserve">
<style type="text/css">
	.st1{fill:#111111;}
</style>
<g id="Circle_Border">
	<path class="st1" d="M125,7c31.52,0,61.15,12.27,83.44,34.56S243,93.48,243,125s-12.27,61.15-34.56,83.44S156.52,243,125,243
		s-61.15-12.27-83.44-34.56S7,156.52,7,125s12.27-61.15,34.56-83.44S93.48,7,125,7 M125,0C55.96,0,0,55.96,0,125s55.96,125,125,125
		s125-55.96,125-125S194.04,0,125,0L125,0z"/>
</g>
<path id="YouTube" class="st1" d="M201.69,86.43c-1.83-6.86-7.2-12.23-14.06-14.06C175.06,68.94,125,68.94,125,68.94
	s-50.06,0-62.63,3.31c-6.74,1.83-12.23,7.43-14.06,14.29C45,99.11,45,125.06,45,125.06s0,26.06,3.31,38.51
	c1.83,6.86,7.2,12.23,14.06,14.06c12.68,3.43,62.63,3.43,62.63,3.43s50.06,0,62.63-3.31c6.86-1.83,12.23-7.2,14.06-14.06
	c3.31-12.57,3.31-38.51,3.31-38.51S205.11,98.89,201.69,86.43z M109,148.83v-48l41.6,24L109,148.83z"/>
</svg>
